<svg width="24" height="24" viewBox="0 0 24 24" fill="none" xmlns="http://www.w3.org/2000/svg">
<path d="M0.351357 20.5108H23.5181C23.712 20.5108 23.868 20.4091 23.868 20.2918V6.21765C23.868 6.09952 23.712 5.99902 23.5181 5.99902H0.355107C0.249732 5.99902 0.169857 6.0219 0.113232 6.05752C0.113232 6.05752 0.110607 6.0609 0.108732 6.06465C0.108732 6.06465 0.101607 6.0654 0.0974819 6.07252C0.0404819 6.10365 0.00335693 6.1539 0.00335693 6.21765V20.2925C0.00335693 20.4099 0.163107 20.5108 0.354732 20.5108" fill="#E4C6B8"/>
<path d="M2.8515 19.5264H23.5526C23.7247 19.5264 23.8661 19.4349 23.8661 19.3299V6.75164C23.8661 6.64627 23.7247 6.55664 23.5526 6.55664H2.8515C2.75662 6.55664 2.68537 6.57689 2.63475 6.60877C2.63475 6.60877 2.63212 6.61214 2.63137 6.61514C2.62425 6.61514 2.62425 6.61589 2.62087 6.62227C2.57062 6.64964 2.5365 6.69502 2.5365 6.75164V19.3299C2.5365 19.4349 2.68012 19.5264 2.8515 19.5264Z" fill="#D1B3AA"/>
<path d="M1.24988 14.6186H6.58463C6.62888 14.6186 6.66563 14.5995 6.66563 14.5774V11.9325C6.66563 11.91 6.62888 11.8913 6.58463 11.8913H1.24988C1.23076 11.8907 1.21177 11.8945 1.19438 11.9025L1.19363 11.9044C1.19363 11.9044 1.19213 11.9044 1.191 11.9051C1.17788 11.9115 1.16925 11.9201 1.16925 11.9325V14.5774C1.16925 14.6006 1.20563 14.6186 1.24988 14.6186ZM16.1438 15.6094H22.1108C22.1595 15.6094 22.2011 15.5828 22.2011 15.5513V11.8541C22.2011 11.8226 22.1595 11.796 22.1108 11.796H16.1438C16.1218 11.795 16.1 11.8005 16.0811 11.8118V11.8144L16.0808 11.8151C16.0734 11.8186 16.0672 11.8241 16.0629 11.831C16.0586 11.838 16.0565 11.846 16.0568 11.8541V15.5513C16.0568 15.5828 16.0965 15.6094 16.1471 15.6094" fill="#F2DDD5"/>
<path d="M0.351357 10.8975H23.5181C23.712 10.8975 23.868 10.8844 23.868 10.8698V9.07088C23.868 9.05588 23.712 9.04313 23.5181 9.04313H0.355107C0.274406 9.04226 0.193705 9.04489 0.113232 9.05101C0.113232 9.05101 0.110607 9.05101 0.108732 9.05176C0.108732 9.05176 0.101607 9.05176 0.0974819 9.05251C0.0404819 9.05551 0.00335693 9.06263 0.00335693 9.07051V10.8698C0.00335693 10.884 0.163107 10.8975 0.354732 10.8975" fill="#34484C"/>
</svg>
